<svg width="788" height="1179" viewBox="0 0 788 1179" fill="none" xmlns="http://www.w3.org/2000/svg">
<path fill-rule="evenodd" clip-rule="evenodd" d="M87.7743 1173.91C149.006 1175.63 206.849 1177.52 267.963 1173.91C365.759 1167.86 652.757 1178.77 715.842 1173.91C720.603 1173.55 736.975 1178.77 737.316 1173.91C740.089 1140.1 741.887 798.068 733.648 774.533C725.409 750.999 684.741 637.865 632.922 585.111C618.473 570.859 596.485 565.338 584.339 548.868C573.867 530.909 574.68 520.368 564.338 510.919C559.85 506.819 549.266 505.156 541.401 499.465C533.493 491.606 540.98 474.306 537.734 463.362C531.044 436.036 506.397 418.505 479.458 414.374C442.016 405.415 402.488 413.886 384.554 443.296C377.878 454.244 381.431 467.551 373.22 485.093C373.806 498.35 358.329 501.553 349.078 506.806L330.707 525.373C274.107 557.219 207.523 574.416 157.93 617.202C115.766 659.975 73.8282 709.413 55.1202 767.283C51.2472 783.052 49.9832 799.35 48.3782 815.463C43.7962 862.551 31.0372 908.254 20.0572 954.121C7.53716 1011.91 -4.13351 1073.26 12.7405 1131.59C17.6055 1143.94 76.6993 1173.33 87.7743 1173.91Z" fill="white"/>
<path fill-rule="evenodd" clip-rule="evenodd" d="M381.31 448.005C381.8 446.404 383.911 446.854 384.071 448.375C385.661 463.455 383.661 479.215 381.741 494.195C380.821 501.425 380.29 508.945 378.89 516.074C378.71 516.835 378.54 517.604 378.38 518.365C378.84 519.184 380.201 520.104 380.85 520.734L383.673 523.478L389.33 528.955C400.401 539.675 411.47 550.404 422.54 561.125L438.79 576.875C444.361 582.274 450.691 587.445 455.58 593.465C458.231 596.734 458.83 600.744 456.22 604.244C454.93 605.974 452.611 607.234 450.26 607.494C451.18 608.774 451.89 610.224 452.34 611.835C453.26 615.115 449.941 619.144 446.411 617.774C442.401 616.234 439.09 613.474 435.01 612.154C430.89 610.814 426.411 610.555 422.14 611.274C420.18 611.604 418.26 612.095 416.39 612.715C436.401 621.925 458.05 627.215 480.13 627.974C484.63 628.125 489.121 628.064 493.59 627.765C501.111 627.274 508.58 626.135 515.92 624.295C521.691 622.845 527.401 621.024 532.941 618.824C535.661 617.744 538.35 616.555 540.951 615.205L541.179 615.07C541.767 614.702 552.632 608.541 552.821 607.615C553.01 606.689 553.01 606.366 552.657 605.56C552.421 605.023 551.977 604.569 551.323 604.198C547.966 602.763 544.488 601.428 540.821 601.404C532.38 601.354 523.17 607.595 516.191 611.845C508.521 616.515 501.47 621.974 494.09 627.035C493.92 627.154 493.731 627.205 493.55 627.205C492.771 627.205 492.05 626.244 492.55 625.494C497.839 617.706 504.978 611.222 512.446 605.56L515.456 603.304C522.295 598.204 530.295 592.555 538.611 591.324C548.8 589.824 559.441 596.175 568.531 599.894L584.63 606.484C587.5 607.654 590.621 608.654 593.51 609.984L586.763 588.875C583.393 578.319 580.03 567.761 576.701 557.195L576.055 555.125C572.738 544.399 569.694 533.243 564.17 523.445C562.85 521.095 561.34 518.885 559.85 516.654C558.3 514.345 557.72 511.795 555.771 509.734C551.911 505.644 546.38 503.244 541.1 501.675C539.81 501.295 540.191 499.595 541.401 499.465C546.819 498.894 551.986 500.157 556.882 502.443L558.917 503.413C563.548 505.604 568.062 507.642 571.5 511.574C579.339 520.554 583.41 531.861 587.151 543.019L588.151 546.015C589.55 545.555 599.06 548.455 600.25 549.144C635.901 564.215 663.361 592.274 683.441 625.154C705.441 661.184 717.42 702.354 727.31 743.095C730.362 755.668 733.281 768.28 736.085 780.92C723.592 785.727 710.314 788.242 698.619 795.014C694.164 797.593 698.188 804.509 702.656 801.922C713.61 795.58 726.087 793.237 737.812 788.783C744.169 818.046 749.824 847.469 754.56 877.015C769.111 967.695 778.3 1059.85 777.72 1151.77C777.71 1153.8 777.111 1156.07 776 1158.02C776.651 1157.7 777.161 1157.32 777.451 1156.86C781.14 1151.07 790.39 1156.44 786.68 1162.26L786.138 1163.11C783.354 1167.4 780.755 1170.68 775.861 1173.1C770.93 1175.54 765.59 1175.95 760.151 1176.09C741.661 1176.58 723.158 1176.9 704.649 1177.13C702.111 1157.33 701.079 1137.34 697.582 1117.66C696.683 1112.6 688.972 1114.74 689.868 1119.79C693.245 1138.79 694.326 1158.09 696.683 1177.22C657.113 1177.65 617.521 1177.65 577.981 1177.76C524.396 1177.92 470.818 1177.81 417.235 1177.78L394.271 1177.77C332.371 1177.77 270.47 1177.57 208.571 1177.16L193.85 1177.06C187.994 1142.54 184.008 1107.72 183.934 1072.64C183.923 1067.5 175.923 1067.49 175.934 1072.64C176.008 1107.68 179.95 1142.5 185.752 1177.01C171.096 1176.95 156.447 1177 141.79 1177.52L134.33 1177.79C119.404 1178.3 104.448 1178.62 89.55 1177.42C73.01 1176.09 56.281 1173.05 41.451 1165.26C34.772 1161.75 28.891 1157.26 23.865 1151.97C28.974 1149 34.156 1146.15 39.105 1142.91C43.396 1140.1 39.393 1133.18 35.067 1136.01C29.734 1139.5 24.128 1142.53 18.637 1145.76C14.661 1140.46 11.398 1134.57 8.92 1128.21C5.01 1118.18 3.5 1107.39 2.19 1096.77C0.641 1084.26 0 1071.65 0 1059.05C0 1032.55 2.79 1006.13 6.681 979.955C10.4019 954.874 15.3204 929.995 20.5194 905.195L21.23 901.814C26.36 877.434 31.25 852.984 37.13 828.774C42.567 806.387 48.85 784.105 56.338 762.254C63.003 766.375 69.978 769.98 76.539 774.273C80.86 777.101 84.873 770.177 80.577 767.366C73.577 762.785 66.111 758.978 59.047 754.502C67.42 731.104 77.248 708.252 89.031 686.365C112.63 642.535 144.431 603.324 185.161 574.385C205.55 559.904 227.92 548.055 251.411 539.434C275.361 530.635 300.18 525.814 325.56 523.835C326.285 523.777 326.691 524.448 326.662 525.068L326.651 525.184L327.651 525.345C328.021 522.835 328.781 520.404 330.231 518.175C333.531 513.095 339.79 509.835 344.79 506.715L345.975 505.977C351.924 502.29 358.202 498.658 365.121 497.365C365.361 497.324 365.51 497.574 365.35 497.765C360.787 502.996 354.953 506.993 349.606 511.418L348.377 512.442C343.946 516.089 337.765 520.228 337.6 526.324C337.411 533.505 338.88 540.974 339.411 548.135C339.941 555.274 340.31 562.404 340.5 569.564C341.191 595.215 340.361 620.875 338.09 646.425L348.129 639.703C363.753 629.245 379.429 618.815 395.43 609.024C405.111 603.095 415.991 598.024 427.59 598.255C430.84 598.314 434.51 598.785 438.031 599.785C434.241 596.195 430.611 592.375 426.901 588.765C420.79 582.814 414.68 576.865 408.571 570.925L390.954 553.764L373.33 536.604C367.871 531.274 361.47 526.365 362.05 517.965C362.521 511.265 365.93 504.595 368.26 498.135C368.59 497.205 368.89 496.285 369.17 495.375C373.871 479.755 376.54 463.564 381.31 448.005ZM609.001 1118.2C605.357 1114.55 599.699 1120.21 603.345 1123.85L605.273 1125.77C608.493 1128.99 611.685 1132.3 613.913 1136.27L614.24 1136.87C616.641 1141.43 623.549 1137.39 621.147 1132.83C618.178 1127.2 613.455 1122.65 609.001 1118.2ZM452.869 1117.17C441.268 1114.95 430.087 1114.95 418.486 1117.17C413.435 1118.13 415.574 1125.85 420.613 1124.88C430.759 1122.95 440.595 1122.95 450.742 1124.88C455.773 1125.84 457.928 1118.14 452.869 1117.17ZM296.197 1036.53C291.205 1035.26 289.075 1042.98 294.071 1044.24L296.531 1044.86C304.892 1046.93 312.855 1048.47 321.541 1046.55C326.5 1045.45 324.495 1037.93 319.611 1038.79L319.414 1038.83C311.377 1040.61 303.973 1038.5 296.197 1036.53ZM574.442 984.567C570.748 980.976 565.085 986.627 568.785 990.223C573.402 994.713 578.843 998.125 585.437 998.307C590.51 998.449 590.582 990.687 585.664 990.318L585.437 990.307C581.018 990.184 577.497 987.538 574.442 984.567ZM103.617 963.201C108.223 960.898 104.176 953.996 99.58 956.294L71.932 970.117C67.326 972.42 71.373 979.324 75.969 977.025L103.617 963.201ZM649.949 964.964C644.799 964.819 644.803 972.819 649.949 972.964C654.788 973.099 659.747 974.932 664.058 977.025C668.67 979.265 672.731 972.369 668.096 970.117C662.46 967.381 656.273 965.14 649.949 964.964ZM391.617 926.338C395.851 923.461 391.853 916.525 387.579 919.43C381.747 923.392 376.463 928.074 370.724 932.156L369.147 933.254C364.913 936.131 368.911 943.065 373.185 940.162C379.546 935.839 385.256 930.659 391.617 926.338ZM689.117 868.195C683.969 868.193 683.961 876.193 689.117 876.195L690.093 876.192C694.342 876.168 698.821 876.05 702.772 877.749L703.226 877.953C707.858 880.135 711.923 873.24 707.264 871.046C701.471 868.318 695.414 868.198 689.117 868.195ZM244.837 862.48L245.509 862.228C250.319 860.501 248.245 852.767 243.382 854.515C236.054 857.148 230.353 862.121 223.996 866.437C219.76 869.314 223.758 876.248 228.033 873.346C233.51 869.626 238.606 864.915 244.837 862.48ZM544.905 841.667L545.984 841.09C550.564 838.733 546.521 831.828 541.947 834.182C538.316 836.05 535.067 838.535 531.505 840.516L530.426 841.094C525.847 843.45 529.889 850.355 534.464 848.002C538.095 846.133 541.344 843.647 544.905 841.667ZM423.202 764.179L422.378 763.384C418.696 759.779 413.035 765.432 416.721 769.041C425.927 778.051 436.811 784.891 447.79 791.505L449.787 792.706C454.212 795.361 458.239 788.447 453.825 785.798L450.894 784.036C441.133 778.149 431.485 772.072 423.202 764.179ZM201.82 756.711C204.922 752.683 198.176 748.741 195.023 752.534L194.912 752.673C191.683 756.865 187.851 760.66 183.847 764.123L183.094 764.769C180.71 766.797 176.371 771.142 173.022 771.428C167.93 771.861 167.884 779.865 173.022 779.428C178.204 778.987 182.663 775.34 186.578 772.215C192.276 767.668 197.373 762.483 201.82 756.711ZM627.433 727.568C631.15 724.076 625.659 718.518 621.909 721.792L621.777 721.912C614.83 728.438 604.837 730.189 595.894 732.402C590.899 733.64 593.015 741.356 598.021 740.117L602.095 739.111C611.234 736.83 620.404 734.174 627.433 727.568ZM468.997 677.107C464.005 675.838 461.875 683.552 466.871 684.821C475.356 686.977 483.393 689.764 491.258 693.634C495.862 695.898 499.92 689.002 495.296 686.726C486.834 682.562 478.133 679.429 468.997 677.107ZM550.72 508.464C550.6 508.104 550.981 507.694 551.35 507.823C560.328 511.171 555.555 522.929 552.766 529.968L552.26 531.254C547.89 542.534 541.781 553.514 535.121 563.614C528.151 574.184 520.411 584.304 512.031 593.804C508.395 597.929 504.625 601.935 500.727 605.822L499.26 607.273C495.321 611.145 490.241 617.944 484.13 617.194C477.55 616.403 473.88 609.374 478.68 604.035C482.071 600.255 486.771 597.243 490.56 593.804C494.321 590.403 497.961 586.895 501.51 583.285C508.771 575.874 515.651 568.044 521.941 559.794C528.024 551.816 533.846 543.618 539.139 535.094L540.191 533.384C544.22 526.755 553.521 517.004 550.72 508.464ZM232.641 592.263C228.379 589.349 224.373 596.279 228.603 599.17C236.381 604.486 243.224 610.926 251.643 615.298C256.151 617.639 260.159 610.929 255.841 608.477L255.681 608.391C247.268 604.02 240.415 597.575 232.641 592.263Z" fill="black"/>
<path fill-rule="evenodd" clip-rule="evenodd" d="M302.973 101.402C308.159 95.8367 314.792 91.6907 322.043 90.3657C315.415 93.6767 308.936 97.1277 302.973 101.402ZM292.815 149.386C291.898 145.145 291.282 140.863 291.088 136.582C292.247 138.344 294.098 139.521 296.177 140.129C294.834 143.136 293.692 146.234 292.815 149.386ZM639.835 215.879C633.849 190.962 605.921 143.035 599.32 133.81C592.152 110.969 631.246 92.6517 609.985 74.7907C600.359 66.7317 587.637 63.8797 575.703 61.0217C493.073 41.1777 404.295 51.1857 327.659 87.6767C316.002 85.2237 303.857 90.0177 295.38 98.4377C255.555 138.466 309.829 210.688 321.697 255.814C342.059 306.131 300.115 314.595 304.613 357.168C308.108 379.162 330.385 384.975 349.184 388.299C352.197 389.004 356.225 389.11 357.197 392.295C360.243 410.886 370.685 428.603 384.704 440.627C383.478 444.259 384.414 448.668 388.737 451.858C427.905 480.965 477.292 495.531 526.144 492.913C584.362 489.792 614.469 456.424 621.734 447.832C661.903 393.585 657.103 322.011 648.909 257.362C643.201 212.326 650.439 260.019 639.835 215.879Z" fill="white"/>
<path fill-rule="evenodd" clip-rule="evenodd" d="M460.322 8.54231C462.152 2.82231 467.332 -0.617692 473.262 0.0923081C478.512 0.712308 484.132 5.92231 483.492 11.6723C483.372 12.7823 483.212 13.8223 483.022 14.8023L483.047 14.8111L483.072 14.8123L482.942 15.1923C482.552 17.0223 482.012 18.6623 481.212 20.2123C480.192 23.1823 479.212 26.1623 478.242 29.1523C479.642 29.0923 481.072 29.1723 482.522 29.4423C484.022 25.6023 485.532 21.7723 487.032 17.9223C488.642 13.8123 489.772 8.53231 492.952 5.35231C497.022 1.29231 504.082 0.452308 509.042 3.35231C514.282 6.41231 516.152 11.8523 515.012 17.6823C514.432 20.6561 512.445 22.7256 509.987 24.0259L509.722 24.1623L507.832 28.6423C508.412 28.3923 509.012 28.1623 509.662 27.9723C510.682 27.6723 511.682 27.4823 512.662 27.4023C515.362 22.5123 518.332 17.7623 521.402 13.1023C524.932 7.74231 531.832 5.46231 537.622 8.85231C542.802 11.8823 545.582 19.8423 541.872 25.0723C539.052 29.0423 536.382 33.0923 533.752 37.1823C534.202 37.2623 534.652 37.3623 535.082 37.4923C535.282 37.2223 535.492 36.9523 535.712 36.6823C538.582 33.1223 541.922 30.4523 545.352 27.4923C548.562 24.7123 550.042 20.3423 554.262 18.2323C559.572 15.5823 565.972 16.8523 569.132 22.1323C575.912 33.4423 564.532 41.7023 557.252 48.5523C563.582 44.6023 570.172 40.9923 576.932 37.8723C580.732 36.1223 584.592 34.4323 588.512 32.9723C594.322 30.8123 599.022 31.5033 603.792 35.5223C605.922 37.3223 606.982 41.2533 606.002 43.8723C604.102 48.8923 601.102 51.9423 595.842 53.3923C592.142 54.4123 588.352 55.1023 584.652 56.1723C578.452 57.9523 572.432 60.1223 566.592 62.8323C567.012 63.0923 567.412 63.3723 567.782 63.6923C572.142 62.2823 576.582 61.0623 581.042 60.0223C588.439 58.2879 595.967 57.1161 603.529 56.3831L606.041 56.1492C615.107 55.2793 626.008 53.6737 631.572 62.3523C633.402 65.2123 633.602 69.9323 631.572 72.7623C627.692 78.2023 623.832 79.2823 617.412 79.3823C623.732 80.0523 630.042 80.8823 636.322 81.8523C640.65 82.5123 644.979 83.2605 649.289 84.0905L651.442 84.5123C656.692 85.5623 662.552 86.1723 667.062 89.2123C676.902 95.8523 672.282 108.782 661.382 110.162C656.112 110.822 650.262 108.592 645.092 107.552C640.072 106.542 635.032 105.652 629.972 104.872C627.352 104.462 624.732 104.102 622.102 103.772C627.452 104.542 632.762 105.632 637.932 107.172L639.368 107.606C649.363 110.652 662.854 115.503 665.972 126.182C667.862 132.672 662.692 138.332 656.432 138.712C650.612 139.062 645.762 135.592 640.822 133.032C637.222 131.172 633.562 129.782 629.682 128.592C625.672 127.362 621.582 126.342 617.462 125.512C620.944 127.43 624.334 129.539 627.589 131.897L629.086 133.003C637.737 139.449 650.93 149.429 647.882 161.512C646.922 165.322 642.672 168.962 638.592 168.572C627.972 167.582 622.112 156.272 614.102 150.212C612.012 148.632 609.722 147.072 607.322 145.552C619.462 160.032 629.122 176.772 636.472 194.062C652.625 232.1 657.581 267.326 657.7 308.226L657.702 309.492C657.722 332.052 657.212 355.022 655.012 377.482C652.972 398.232 649.232 418.712 639.822 437.503C624.052 469.012 593.322 493.552 559.432 502.892C521.722 513.292 479.572 505.162 448.682 481.162C440.802 475.042 451.252 461.753 459.302 467.402C491.452 489.952 533.032 497.092 569.932 481.832C599.202 469.732 622.772 443.702 632.762 413.732C639.12 394.666 640.972 374.336 643.24 354.466L643.392 353.142C645.792 332.362 647.182 311.442 647.162 290.522C647.132 251.672 641.552 219.692 624.462 184.452C616.422 167.852 605.992 152.503 593.532 139.032C589.752 139.802 585.732 138.722 581.912 138.312C579.962 138.102 578.012 137.902 576.062 137.722C578.054 139.01 580.007 140.35 581.928 141.72L584.446 143.536C592.328 149.181 602.328 155.61 600.302 166.522C599.752 169.472 596.812 172.182 593.962 172.852C583.632 175.312 576.532 165.272 569.552 159.312C563.482 154.132 557.132 149.492 550.662 144.842C549.192 143.792 547.712 142.742 546.222 141.702C547.622 143.334 548.983 144.992 550.312 146.665L552.276 149.154C558.218 156.589 566.784 166.254 561.492 175.892C559.992 178.612 556.792 180.422 553.692 180.362C543.032 180.142 538.792 168.042 533.792 160.402C529.492 153.852 524.822 147.682 519.992 141.512C518.662 139.822 517.322 138.132 515.962 136.442C493.572 137.602 471.262 140.562 449.342 145.292C434.282 148.542 419.472 152.753 404.772 157.362L403.55 157.751C395.595 160.312 387.398 163.591 381.662 169.212C380.843 173.086 381.471 177.17 382.255 181.038L382.865 183.999C385.38 196.38 387.094 208.531 385.812 221.242C384.482 234.352 380.532 246.142 375.712 258.322C373.432 264.062 371.072 263.022 370.262 269.182C369.641 273.874 370.025 278.718 370.449 283.449L370.803 287.46C371.692 297.967 372.139 309.423 365.252 318.092C364.182 319.422 361.892 318.892 361.132 317.562C360.832 317.032 360.512 316.522 360.162 316.032C356.842 311.222 351.752 308.482 345.932 307.422C345.192 307.292 345.482 306.302 346.102 306.222C351.022 305.642 355.682 306.872 359.642 309.412C357.764 302.919 343.226 306.077 338.446 307.339L338.282 307.382C332.322 308.982 326.682 311.582 321.712 315.262C311.712 322.662 305.932 334.202 306.222 346.632C306.512 358.852 312.822 370.142 323.662 375.992C328.892 378.812 334.842 380.172 340.762 380.112C346.942 380.052 352.442 377.342 358.632 377.722C362.212 377.942 364.952 381.782 362.882 385.132C361.502 387.372 359.702 389.132 357.622 390.482C362.692 402.172 369.162 413.322 376.622 423.612C380.752 429.322 385.432 434.592 390.582 439.402C394.602 443.162 403.312 447.512 402.822 453.782C402.652 456.042 401.482 457.422 399.422 458.262C393.017 460.881 385.23 451.865 380.946 447.519L380.602 447.172C375.262 441.852 370.392 435.972 366.152 429.732C358.632 418.652 353.962 406.162 352.032 393.042C341.762 396.132 328.162 393.232 319.782 389.442C293.442 377.542 284.832 342.072 300.842 318.452C303.942 313.882 307.822 309.972 312.242 306.812C311.272 306.282 310.362 305.602 309.552 304.742C305.071 299.983 301.903 293.772 298.759 288.047L298.382 287.362C295.591 282.322 292.958 277.203 290.49 272.005L289.572 270.052C284.062 258.202 279.232 253.022 275.302 240.562C271.522 228.542 268.542 216.292 266.612 203.832L266.099 200.534C264.983 193.304 263.927 185.573 264.742 178.232C259.132 180.062 253.492 181.192 247.942 178.442C244.282 176.632 242.262 171.352 243.512 167.562C244.422 164.772 245.942 162.582 247.872 160.862C246.722 160.282 245.642 159.542 244.692 158.722L243.862 158.003C240.502 155.082 240.262 149.532 242.302 145.872C242.502 145.522 242.702 145.162 242.892 144.812C244.832 141.342 248.842 139.072 252.802 139.132C253.442 139.142 254.082 139.142 254.732 139.132C252.882 138.722 251.072 138.092 249.352 137.032C241.592 132.262 242.572 119.332 251.962 117.052C255.902 116.102 260.252 116.492 264.592 117.512C264.432 117.422 264.272 117.332 264.112 117.232C260.832 115.222 258.082 111.292 258.392 107.262C258.732 102.802 260.172 99.6223 264.112 97.2823C267.532 95.2623 272.372 95.0723 275.772 97.2823C278.722 99.2123 281.612 101.342 284.392 103.632C281.602 100.202 279.182 96.4723 278.202 92.5123C276.992 87.5823 279.012 82.2123 283.452 79.6123C286.992 77.5423 290.732 77.7723 294.072 79.3723C293.892 76.7823 294.522 74.1423 296.242 71.8023C299.762 67.0033 306.162 64.2423 311.732 67.7423C312.462 68.2023 313.442 68.9923 314.392 69.9623C312.542 64.0723 314.212 57.8923 320.522 55.2323C324.372 53.6023 329.582 54.4223 332.922 57.2323C330.802 45.7623 347.732 37.3323 354.312 49.1823C355.805 51.8668 357.283 54.6934 358.604 57.5851L359.092 58.6723L359.142 58.6523L358.805 57.8573L358.462 57.0623C356.632 52.8123 354.302 48.3923 353.662 43.7823C352.722 36.9623 355.762 30.4923 363.182 29.4923C367.012 28.9723 371.272 30.7123 373.842 33.7533C372.452 23.1723 384.272 15.4823 392.782 23.3823C396.812 27.1223 398.962 32.5923 401.522 37.3923C402.972 40.1023 404.452 42.8023 405.902 45.5223C406.272 45.0823 406.672 44.6423 407.092 44.2123C404.942 37.7723 403.272 31.1723 401.862 24.5323C400.522 18.2723 403.652 11.7723 410.112 10.0033C415.982 8.38231 423.332 12.0033 424.642 18.2533C425.562 22.6523 426.652 27.0033 427.852 31.3323C428.672 31.1323 429.482 30.9923 430.282 30.8923C430.348 30.079 430.424 29.2612 430.508 28.4479L430.823 25.5552C431.522 18.9457 432.228 11.4007 435.682 5.78231C441.572 -3.81769 456.672 0.162308 456.832 11.5123C456.922 17.3823 454.532 23.2023 453.702 29.0123C453.342 31.5423 453.132 34.1023 453.012 36.6623C454.622 28.1623 456.832 19.7723 459.392 11.5123C459.692 10.5223 460.012 9.53231 460.322 8.54231ZM330.042 336.323C343.292 334.273 355.402 341.663 363.252 352.013C364.682 353.903 363.742 356.573 362.452 358.163C361.522 359.333 360.272 359.473 358.862 359.653C357.242 359.863 355.192 358.553 354.482 357.143C349.432 347.063 340.422 340.693 330.042 336.773C329.852 336.703 329.792 336.363 330.042 336.323ZM348.409 155.718L348.811 155.287C351.492 152.506 347.255 148.258 344.568 151.045C341.739 153.979 339.859 157.543 338.051 161.155C336.328 164.599 341.502 167.641 343.232 164.184L344.02 162.613C345.256 160.17 346.574 157.756 348.409 155.718ZM311.199 150.01C314.999 149.37 313.388 143.587 309.604 144.225C304.702 145.051 299.819 145.99 294.916 146.817C291.117 147.457 292.728 153.24 296.512 152.603C301.414 151.776 306.297 150.837 311.199 150.01ZM537.567 110.529C533.896 109.304 532.321 115.097 535.972 116.315C541.017 117.998 546.021 119.723 550.807 122.06C554.264 123.748 557.309 118.575 553.835 116.879C548.582 114.314 543.105 112.377 537.567 110.529ZM310.335 102.753C306.75 101.319 305.193 107.12 308.74 108.539L321.7 113.722C325.285 115.156 326.842 109.356 323.295 107.937L310.335 102.753ZM582.821 88.6658L582.348 88.3673C579.098 86.2613 576.087 91.4533 579.319 93.5483C581.216 94.7775 583.523 95.6112 585.26 97.0755L585.624 97.3993C588.43 100.049 592.681 95.8153 589.867 93.1563C587.808 91.2129 585.202 90.1308 582.821 88.6658Z" fill="black"/>
<path fill-rule="evenodd" clip-rule="evenodd" d="M602.634 376.664C596.04 375.425 589.223 375.773 582.673 374.331C576.283 372.923 571.208 368.736 565.034 366.787C559.601 365.071 553.233 366.233 549.002 369.559C545.071 367.742 540.604 367.349 536.132 367.949C529.35 368.859 523.022 371.729 516.981 374.833C516.281 375.193 515.58 375.536 514.88 375.883C503.718 375.604 492.275 375.626 481.322 378.018C471.623 380.137 462.454 385.069 456.67 393.307C450.197 402.528 449.028 414.27 448.03 425.166C447.395 432.082 457.001 433.485 460.256 428.477C463.631 423.285 467.144 418.081 471.641 413.779C476.749 408.892 482.962 406.968 489.925 406.522C505.293 405.538 520.763 406.363 536.146 405.682C545.063 405.287 554.991 401.858 558.585 394.106C562.421 400.117 571.113 403.691 578.262 404.233C585.817 404.807 593.488 403.434 600.968 405.008C608.114 406.512 616.608 411.834 615.019 420.346C614.085 425.346 620.406 428.294 623.315 423.844C635.194 405.661 623.489 380.585 602.634 376.664Z" fill="black"/>
<path fill-rule="evenodd" clip-rule="evenodd" d="M602.634 376.664C596.04 375.425 589.223 375.773 582.673 374.331C576.283 372.923 571.208 368.736 565.034 366.787C559.601 365.071 553.233 366.233 549.002 369.559C545.071 367.742 540.604 367.349 536.132 367.949C529.35 368.859 523.022 371.729 516.981 374.833C516.281 375.193 515.58 375.536 514.88 375.883C503.718 375.604 492.275 375.626 481.322 378.018C471.623 380.137 462.454 385.069 456.67 393.307C450.197 402.528 449.028 414.27 448.03 425.166C447.395 432.082 457.001 433.485 460.256 428.477C463.631 423.285 467.144 418.081 471.641 413.779C476.749 408.892 482.962 406.968 489.925 406.522C505.293 405.538 520.763 406.363 536.146 405.682C545.063 405.287 554.991 401.858 558.585 394.106C562.421 400.117 571.113 403.691 578.262 404.233C585.817 404.807 593.488 403.434 600.968 405.008C608.114 406.512 616.608 411.834 615.019 420.346C614.085 425.346 620.406 428.294 623.315 423.844C635.194 405.661 623.489 380.585 602.634 376.664Z" fill="black"/>
<path fill-rule="evenodd" clip-rule="evenodd" d="M636.09 302.432C633.262 310.128 628.958 318.14 623.695 324.617C602.401 342.649 581.71 332.665 571.204 308.226C567.212 290.955 577.811 272.351 589.042 259.646C605.262 243.389 631.733 251.921 639.191 271.247C639.644 273.751 639.918 276.249 640.049 278.739C639.894 286.83 638.919 293.745 636.09 301.432M431.41 286.911C459.462 253.544 511.942 251.76 510.603 303.115C504.577 368.119 403.106 352.164 431.41 286.911ZM644.913 259.076C643.93 257.411 642.839 255.8 641.648 254.259C641.208 253.997 640.955 251.673 639.337 251.501C617.71 227.642 579.717 241.179 565.989 264.953C563.482 267.959 561.437 271.478 559.929 275.196C546.403 272.715 530.634 273.197 518.054 278.306C505.58 245.734 467.815 242.826 442.928 256.743C427.449 264.356 417.412 280.299 402.358 289.057C366.969 291.604 328.988 283.675 294.238 292.552C266.832 298.25 289.742 312.127 294.338 302.866C327.101 293.186 365.916 301.366 399.933 299.185C403.47 305.168 410.253 310.064 417.013 309.855C424.314 374.576 518.698 363.844 521.954 306.311C525.647 300.472 530.24 294.884 536.814 291.246C539.331 290.725 541.762 290.048 543.984 289C547.782 288.464 553.634 290.074 557.128 293.236C569.097 365.052 638.052 356.688 650.375 293.774C650.62 293.524 651.305 292.586 651.831 291.081C656.049 285.504 666.375 283.431 664.725 274.016C663.256 264.599 651.364 264.711 644.913 259.076Z" fill="black"/>
<path fill-rule="evenodd" clip-rule="evenodd" d="M563.235 444.893C553.591 447.555 543.238 447.793 533.407 445.044C524.49 442.551 515.334 437.064 508.772 429.804C502.942 423.354 499.166 415.516 499.314 407.149C499.331 406.194 499.69 405.396 500.242 404.777C500.835 404.111 501.665 403.653 502.553 403.455C503.467 403.25 504.433 403.323 505.256 403.679C506 404.001 506.638 404.548 507.037 405.348C508.046 406.611 509.051 407.854 510.059 409.063C518.169 418.604 526.022 425.734 538.216 428.291C544.832 429.679 551.44 429.063 557.503 426.946C563.993 424.68 569.86 420.695 574.457 415.595C576.535 413.29 578.988 412.35 581.386 412.334C584.104 412.316 586.791 413.519 588.815 415.442C590.804 417.333 592.136 419.902 592.257 422.589C592.363 424.948 591.555 427.412 589.407 429.61C582.33 436.85 573.159 442.155 563.235 444.893ZM562.937 325.403C572.824 331.128 587.888 344.479 577.252 358.674C564.733 371.19 546.708 356.839 537.826 350.349C529.59 345.32 520.336 358.256 527.978 364.129C592.161 409.404 618.209 326.9 567.938 318.671C562.403 317.764 560.347 323.631 562.937 325.403ZM470.454 300.209C467.276 298.273 463.538 297.608 459.396 299.404C456.158 300.806 450.481 305.482 446.529 311.629C443.826 315.834 441.909 320.768 442.308 325.906C442.401 327.1 441.938 327.98 441.208 328.63C440.631 329.144 439.798 329.522 438.82 329.64C437.99 329.74 437.06 329.65 436.304 329.425C434.866 328.997 434.106 328.109 433.819 327.383C431.052 320.383 432.244 312.571 435.345 305.523C439.529 296.011 447.129 288.044 452.108 285.475C460.628 281.078 470.679 280.876 479.211 285.355C486.474 289.168 491.016 295.323 495.533 301.598C496.493 302.931 497.446 304.255 498.431 305.556C500.404 308.162 500.601 310.747 499.837 312.964C498.99 315.42 496.83 317.492 494.13 318.577C491.635 319.579 488.738 319.72 486.175 318.69C484.01 317.82 482.023 316.124 480.766 313.246C478.648 308.4 475.12 303.052 470.454 300.209ZM631.838 310.992C629.662 312.072 627.959 312.398 625.545 311.709C624.21 311.327 622.891 310.594 621.858 309.61C620.834 308.635 620.095 307.422 619.808 306.076C619.102 302.755 617.195 299.647 614.477 297.62C612.154 295.888 609.222 294.97 605.97 295.488C602.461 296.046 599.117 298.19 596.815 300.719C596.045 301.564 595.442 302.525 594.835 303.48C593.701 305.264 592.598 306.923 591.033 308.234C590.44 308.732 589.546 309.078 588.68 309.078C588.329 309.078 587.972 309.023 587.631 308.922C584.138 305.582 583.467 303.048 583.579 300.535C583.697 297.899 584.788 295.231 586.55 292.741C590.684 286.901 598.534 282.113 603.83 281.028C611.084 279.543 618.288 281.326 624.064 285.186C630.007 289.157 634.41 295.324 635.783 302.273C636.113 303.947 635.973 305.754 635.304 307.32C634.65 308.851 633.511 310.161 631.838 310.992ZM486.452 237.942C482.099 241.983 476.946 242.609 471.734 243.165C468.838 243.478 466.526 243.729 464.251 244.219C457.997 245.563 451.816 247.589 446.177 250.506C440.282 253.556 433.857 257.234 429.236 261.945C428.137 263.066 427.101 264.243 426.063 265.422C425.117 266.497 424.206 267.532 423.245 268.53C422.142 269.676 421.095 270.878 420.053 272.076C419.409 273.087 419.282 273.336 419.152 273.595C418.957 273.984 418.73 274.419 418.47 274.886C418.115 275.525 417.699 276.226 417.263 276.86C416.538 278.021 416.149 278.34 415.813 278.483C415.256 278.72 414.727 278.837 414.213 278.773C413.732 278.714 413.279 278.494 412.831 278.134C410.596 276.334 409.937 273.382 410.005 270.248C410.107 265.492 411.948 260.226 413.646 256.989C417.592 249.467 423.065 241.648 429.647 236.035C437.156 229.627 445.373 224.776 454.809 221.433C460.674 219.355 467.464 217.448 473.853 217.689C478.452 217.862 482.842 219.165 486.468 222.417C488.694 224.414 489.763 227.254 489.763 230.092C489.763 232.987 488.653 235.899 486.452 237.942ZM640.691 274.946C640.414 275.378 640.031 275.676 639.605 275.855C639.158 276.043 638.659 276.097 638.18 276.02C637.703 275.943 637.25 275.737 636.891 275.423C636.546 275.121 636.284 274.721 636.167 274.231C633.277 262.137 627.665 253.139 615.687 247.336C609.794 244.482 603.019 242.668 596.605 241.222C594.741 240.802 592.772 240.529 590.788 240.253C584.572 239.389 578.311 238.398 574.259 233.611C571.817 230.727 570.792 227.04 571.372 223.667C571.917 220.491 573.865 217.579 577.406 215.834C586.22 211.492 597.174 215.753 606.075 219.383C606.735 219.652 607.383 219.916 608.017 220.171C616.722 223.672 624.661 228.293 631.187 234.901C636.365 240.144 641.163 247.894 643.095 255.867C644.703 262.5 644.325 269.272 640.691 274.946Z" fill="black"/>
</svg>
